#!OML:ASF G:\JayActor3\Patient Classification 1\Patient 1\Session 6\male.ASF
:FULLY-SPECIFIED
:DEGREES
1825
root 8.4631 15.5066 -3.85176 12.5134 -35.2916 -4.24665
lowerback 35.0922 -1.49885 4.88827
upperback 10.2581 -0.714425 -0.365324
thorax -6.27649 -0.473997 -2.67712
lowerneck -3.64338 -3.508 0.462312
upperneck 15.6568 -4.50142 -2.31848
head 5.24029 -2.3273 -1.04612
rclavicle 4.79071e-014 -6.16232e-014
rhumerus -22.2789 -0.211822 -83.1274
rradius 135.866
rwrist 18.3772
rhand 4.60417 -24.2003
rfingers 7.12502
rthumb 29.9924 -51.789
lclavicle 4.79071e-014 -6.16232e-014
lhumerus -34.005 16.0017 74.6528
lradius 135.05
lwrist 6.66412
lhand -0.981287 34.7455
lfingers 7.12502
lthumb 24.6501 63.1779
rfemur -39.8938 -7.92637 21.4052
rtibia 60.1495
rfoot -31.2335 -26.6362
rtoes -0.162344
lfemur -46.4193 17.3658 -17.1445
ltibia 48.4386
lfoot -10.5612 -0.184399
ltoes -1.01077
1826
root 8.46417 15.5142 -3.85473 12.3835 -35.3356 -4.28246
lowerback 35.0813 -1.51528 4.92278
upperback 10.231 -0.72638 -0.408649
thorax -6.30403 -0.479152 -2.73675
lowerneck -3.6312 -3.50223 0.496513
upperneck 15.6469 -4.49906 -2.30509
head 5.23467 -2.32359 -1.04703
rclavicle 1.75328e-013 -1.31794e-013
rhumerus -22.3259 -0.218389 -83.1927
rradius 135.859
rwrist 18.4
rhand 4.64157 -24.2158
rfingers 7.12502
rthumb 30.028 -51.798
lclavicle 1.75328e-013 -1.31794e-013
lhumerus -34.0255 15.9655 74.6164
lradius 135.036
lwrist 6.65157
lhand -0.988444 34.744
lfingers 7.12502
lthumb 24.6433 63.1774
rfemur -39.638 -7.91283 21.4161
rtibia 59.9694
rfoot -31.1826 -26.6015
rtoes -0.127938
lfemur -46.1385 17.4278 -17.0684
ltibia 48.2571
lfoot -10.5126 -0.212493
ltoes -0.964334
1827
root 8.46564 15.5214 -3.85785 12.2619 -35.3848 -4.31581
lowerback 35.0437 -1.5079 4.9122
upperback 10.223 -0.72279 -0.410751
thorax -6.29918 -0.477642 -2.7352
lowerneck -3.61867 -3.50027 0.494502
upperneck 15.6076 -4.49633 -2.30708
head 5.22037 -2.3226 -1.04627
rclavicle -6.26172e-014 3.20043e-014
rhumerus -22.3408 -0.209039 -83.1986
rradius 135.858
rwrist 18.3967
rhand 4.67561 -24.2317
rfingers 7.12502
rthumb 30.0605 -51.808
lclavicle -6.26172e-014 3.20043e-014
lhumerus -34.0301 15.9499 74.6463
lradius 135.03
lwrist 6.63393
lhand -0.983114 34.7359
lfingers 7.12502
lthumb 24.6484 63.1686
rfemur -39.3979 -7.89678 21.4253
rtibia 59.7952
rfoot -31.1289 -26.567
rtoes -0.113201
lfemur -45.8763 17.5026 -17.0023
ltibia 48.0851
lfoot -10.4655 -0.248247
ltoes -0.908157
1828
root 8.46752 15.5284 -3.86113 12.1438 -35.4396 -4.33838
lowerback 34.9178 -1.49476 4.88905
upperback 10.3034 -0.724116 -0.409963
thorax -6.29513 -0.477816 -2.73431
lowerneck -3.60324 -3.49612 0.489016
upperneck 15.559 -4.49078 -2.30589
head 5.20294 -2.3202 -1.04361
rclavicle 5.4467e-014 1.72943e-014
rhumerus -22.353 -0.19179 -83.212
rradius 135.862
rwrist 18.384
rhand 4.697 -24.2427
rfingers 7.12502
rthumb 30.0809 -51.8153
lclavicle 5.4467e-014 1.72943e-014
lhumerus -34.0413 15.9347 74.6577
lradius 135.032
lwrist 6.63582
lhand -0.966939 34.7177
lfingers 7.12502
lthumb 24.6639 63.1483
rfemur -39.1743 -7.87754 21.4246
rtibia 59.6277
rfoot -31.0703 -26.5331
rtoes -0.117616
lfemur -45.6292 17.576 -16.9502
ltibia 47.9197
lfoot -10.4195 -0.275145
ltoes -0.87438
1829
root 8.46985 15.535 -3.86448 12.0298 -35.4989 -4.35552
lowerback 34.8772 -1.48971 4.87451
upperback 10.2975 -0.726083 -0.424135
thorax -6.28767 -0.478614 -2.74143
lowerneck -3.58091 -3.49196 0.489161
upperneck 15.4992 -4.48637 -2.30003
head 5.18084 -2.3177 -1.04015
rclavicle 6.22196e-014 -9.93923e-016
rhumerus -22.3624 -0.174185 -83.2368
rradius 135.868
rwrist 18.3637
rhand 4.70413 -24.2471
rfingers 7.12502
rthumb 30.0877 -51.8184
lclavicle 6.22196e-014 -9.93923e-016
lhumerus -34.0524 15.9123 74.6544
lradius 135.039
lwrist 6.64626
lhand -0.968317 34.7246
lfingers 7.12502
lthumb 24.6626 63.1554
rfemur -38.9633 -7.85554 21.4177
rtibia 59.4669
rfoot -31.0091 -26.495
rtoes -0.12951
lfemur -45.394 17.6425 -16.9044
ltibia 47.761
lfoot -10.3764 -0.289742
ltoes -0.844443
1830
root 8.47256 15.5413 -3.86797 11.9169 -35.5616 -4.36268
lowerback 34.8358 -1.48447 4.85039
upperback 10.2927 -0.73115 -0.439517
thorax -6.2792 -0.480909 -2.74369
lowerneck -3.55537 -3.48522 0.48627
upperneck 15.4391 -4.47864 -2.29128
head 5.1583 -2.31358 -1.03507
rclavicle 4.31363e-014 -4.96962e-014
rhumerus -22.3674 -0.146031 -83.2664
rradius 135.873
rwrist 18.3398
rhand 4.70718 -24.2476
rfingers 7.12502
rthumb 30.0906 -51.8184
lclavicle 4.31363e-014 -4.96962e-014
lhumerus -34.0675 15.8937 74.648
lradius 135.05
lwrist 6.66204
lhand -0.960178 34.7234
lfingers 7.12502
lthumb 24.6704 63.153
rfemur -38.7659 -7.8302 21.3999
rtibia 59.3134
rfoot -30.9489 -26.4517
rtoes -0.132328
lfemur -45.1692 17.693 -16.8669
ltibia 47.6091
lfoot -10.337 -0.282802
ltoes -0.826549
1831
root 8.47582 15.5471 -3.87151 11.8082 -35.6239 -4.37614
lowerback 34.7761 -1.45578 4.78085
upperback 10.306 -0.719688 -0.403791
thorax -6.24212 -0.476423 -2.67442
lowerneck -3.53384 -3.48131 0.450397
upperneck 15.3692 -4.4684 -2.30715
head 5.13364 -2.31154 -1.032
rclavicle 1.39149e-015 6.87795e-014
rhumerus -22.339 -0.0909826 -83.227
rradius 135.872
rwrist 18.304
rhand 4.70783 -24.249
rfingers 7.12502
rthumb 30.0913 -51.8197
lclavicle 1.39149e-015 6.87795e-014
lhumerus -34.0678 15.9044 74.7201
lradius 135.057
lwrist 6.6601
lhand -0.972704 34.73
lfingers 7.12502
lthumb 24.6584 63.1614
rfemur -38.5741 -7.80187 21.3851
rtibia 59.166
rfoot -30.8849 -26.4109
rtoes -0.134861
lfemur -44.9526 17.735 -16.8238
ltibia 47.4687
lfoot -10.3024 -0.263052
ltoes -0.819932
1832
root 8.47959 15.5524 -3.87508 11.7081 -35.6844 -4.40392
lowerback 34.7071 -1.41069 4.68827
upperback 10.3304 -0.693186 -0.329254
thorax -6.188 -0.465688 -2.55768
lowerneck -3.51843 -3.48146 0.394688
upperneck 15.3043 -4.45881 -2.34542
head 5.11148 -2.31228 -1.03286
rclavicle -5.48646e-014 6.38099e-014
rhumerus -22.2906 -0.0234506 -83.1367
rradius 135.865
rwrist 18.2635
rhand 4.70669 -24.2533
rfingers 7.12502
rthumb 30.0902 -51.8242
lclavicle -5.48646e-014 6.38099e-014
lhumerus -34.06 15.9337 74.8536
lradius 135.06
lwrist 6.64614
lhand -0.981614 34.728
lfingers 7.12502
lthumb 24.6498 63.1605
rfemur -38.3874 -7.76889 21.3808
rtibia 59.0241
rfoot -30.8179 -26.376
rtoes -0.13536
lfemur -44.7452 17.7713 -16.7674
ltibia 47.3414
lfoot -10.2722 -0.237532
ltoes -0.796051
1833
root 8.4839 15.557 -3.87866 11.6171 -35.7419 -4.44657
lowerback 34.631 -1.3508 4.57276
upperback 10.3646 -0.653408 -0.215773
thorax -6.11915 -0.44967 -2.39271
lowerneck -3.51628 -3.4845 0.315996
upperneck 15.2506 -4.44838 -2.40383
head 5.09512 -2.31513 -1.03661
rclavicle -6.63941e-014 1.15891e-013
rhumerus -22.2224 0.0591134 -82.9965
rradius 135.851
rwrist 18.2165
rhand 4.70719 -24.2614
rfingers 7.12502
rthumb 30.0906 -51.8322
lclavicle -6.63941e-014 1.15891e-013
lhumerus -34.0448 15.9826 75.0496
lradius 135.057
lwrist 6.61367
lhand -0.960022 34.7149
lfingers 7.12502
lthumb 24.6705 63.1446
rfemur -38.2073 -7.73591 21.3889
rtibia 58.8886
rfoot -30.7487 -26.348
rtoes -0.140392
lfemur -44.5496 17.8091 -16.7004
ltibia 47.2286
lfoot -10.2458 -0.214361
ltoes -0.75539
